<svg xmlns="http://www.w3.org/2000/svg" width="150" height="22" viewBox="0 0 150 22">
  <g id="Group_1492" data-name="Group 1492" transform="translate(-52.386 -245.215)">
    <path id="Path_8475" data-name="Path 8475" d="M277.329,273.1c-.056.1-.093.161-.127.224L274.223,279c-.025.047-.05.093-.074.14a.313.313,0,0,1-.265.183,4.166,4.166,0,0,1-.437.009.4.4,0,0,1-.356-.244c-.279-.546-.566-1.089-.85-1.632l-2.16-4.138c-.03-.057-.063-.112-.111-.193a1.17,1.17,0,0,0-.046.127c-.411,1.883-.824,3.766-1.225,5.652a.455.455,0,0,1-.38.4,3.008,3.008,0,0,1-.492.072,14.388,14.388,0,0,1-2.071-.02,1.4,1.4,0,0,1-.328-.076c-.211-.076-.262-.178-.21-.4q.368-1.546.739-3.091,1.088-4.54,2.177-9.079c.084-.354.142-.4.515-.407.093,0,.186,0,.279.005a.467.467,0,0,1,.429.265c.6,1.068,1.214,2.132,1.822,3.2l2.345,4.107c.035.061.073.121.122.2.058-.1.1-.169.144-.242q2.056-3.6,4.107-7.2a.566.566,0,0,1,.573-.333c.093.005.186,0,.279.006.249.017.325.082.383.321q.244,1.017.486,2.035,1.163,4.856,2.327,9.713c.042.179.09.357.13.537a.255.255,0,0,1-.009.2.259.259,0,0,1-.156.133,1.151,1.151,0,0,1-.343.1,13.373,13.373,0,0,1-2.368,0,1.759,1.759,0,0,1-.2-.037.477.477,0,0,1-.414-.412c-.394-1.853-.8-3.7-1.2-5.556C277.372,273.28,277.356,273.217,277.329,273.1Z" transform="translate(-167.872 -16.633)" fill="#0a1e7f"/>
    <path id="Path_8476" data-name="Path 8476" d="M348.14,273.077a6.638,6.638,0,1,1,.391,2.162,6.161,6.161,0,0,1-.391-2.162Zm6.9,3.27a3.051,3.051,0,0,0,2.65-1.741,3.435,3.435,0,0,0,.362-1.971,3.194,3.194,0,0,0-2.906-2.946,3.071,3.071,0,0,0-2.692,1.052,3.358,3.358,0,0,0-.746,3.067A3.259,3.259,0,0,0,355.037,276.347Z" transform="translate(-233.297 -16.705)" fill="#0a1e7f"/>
    <path id="Path_8477" data-name="Path 8477" d="M424.5,272.768v6.16c0,.318-.076.429-.4.481a5.452,5.452,0,0,1-.872.068c-.491,0-.981-.032-1.472-.053a.681.681,0,0,1-.174-.04.345.345,0,0,1-.235-.138.34.34,0,0,1-.06-.265V266.834c0-.382.067-.449.45-.45.08,0,.16,0,.239,0a.705.705,0,0,1,.475.213q2.6,2.561,5.211,5.114.772.757,1.546,1.513c.037.036.078.069.149.133,0-.109.007-.183.007-.258v-6.024c0-.053,0-.1,0-.158a.249.249,0,0,1,.167-.265,1.557,1.557,0,0,1,.4-.109,11.066,11.066,0,0,1,2.07,0,1.612,1.612,0,0,1,.4.107.251.251,0,0,1,.171.263c0,.059,0,.118,0,.178v12.148c0,.276-.071.346-.353.36-.086,0-.173,0-.259,0a.778.778,0,0,1-.566-.24q-3.37-3.237-6.749-6.464C424.614,272.865,424.578,272.836,424.5,272.768Z" transform="translate(-290.994 -16.699)" fill="#0a1e7f"/>
    <path id="Path_8478" data-name="Path 8478" d="M564.87,275.863h-1.68c0,.081-.008.158-.008.234v3.614c0,.053,0,.1,0,.158a.262.262,0,0,1-.2.288,2.168,2.168,0,0,1-.542.113c-.584.014-1.169.013-1.753,0a2.043,2.043,0,0,1-.5-.1.281.281,0,0,1-.218-.313c0-.039,0-.079,0-.119v-11.87a1.639,1.639,0,0,1,.007-.217.242.242,0,0,1,.236-.225c.059-.006.12,0,.179,0h5.2a3.989,3.989,0,0,1,3.954,3.228,4.562,4.562,0,0,1-.273,2.8,3.744,3.744,0,0,1-1.343,1.605c-.038.026-.077.051-.115.079a.214.214,0,0,0-.031.042c.033.064.068.134.106.2l2.286,4.251c.028.052.058.1.083.157.094.2.047.331-.166.4a1.462,1.462,0,0,1-.428.082q-.966.012-1.932,0a2.676,2.676,0,0,1-.451-.07.5.5,0,0,1-.369-.3q-.966-1.926-1.944-3.847C564.939,275.994,564.9,275.93,564.87,275.863Zm-1.679-3.068H565a2.172,2.172,0,0,0,.258-.017,1.147,1.147,0,0,0,.8-.5,1.142,1.142,0,0,0-.959-1.775c-.6-.009-1.2,0-1.8,0a.741.741,0,0,0-.119.021Z" transform="translate(-400.391 -17.516)" fill="#0a1e7f"/>
    <path id="Path_8479" data-name="Path 8479" d="M220.778,274.985v2.144c.069,0,.132.007.2.007l5.083-.007h.08c.344,0,.445.072.522.409a2.154,2.154,0,0,1,.058.449c.006.48.008.961,0,1.441a2.062,2.062,0,0,1-.084.5c-.064.228-.166.293-.409.293h-8.313c-.265,0-.352-.092-.352-.362q0-1.116,0-2.232v-9.657c0-.053,0-.1,0-.158-.021-.248.079-.377.374-.377q4.137.005,8.273,0c.276,0,.371.063.44.327a1.98,1.98,0,0,1,.074.466q.013.75,0,1.5a1.934,1.934,0,0,1-.071.447c-.072.272-.169.34-.452.34h-5.406v1.758h4.423c.317,0,.413.07.481.377a2.329,2.329,0,0,1,.063.488q0,.641-.03,1.282a1.272,1.272,0,0,1-.1.379.285.285,0,0,1-.281.185h-4.563Z" transform="translate(-130.286 -17.528)" fill="#0a1e7f"/>
    <path id="Path_8480" data-name="Path 8480" d="M620.034,270.506v1.758h4.433c.3,0,.4.078.476.365a.972.972,0,0,1,.027.155,7.993,7.993,0,0,1-.018,1.772.879.879,0,0,1-.073.224.3.3,0,0,1-.3.2h-4.552v2.141c.073,0,.137.01.2.01l5.123-.007c.39,0,.483.07.563.455a2.195,2.195,0,0,1,.057.449c0,.533-.012,1.065-.032,1.6a1.272,1.272,0,0,1-.1.38.308.308,0,0,1-.323.214c-.046,0-.093,0-.14,0l-8.134,0c-.311,0-.443-.039-.442-.432q.009-5.964,0-11.928v-.118c0-.226.082-.3.317-.305q1.3,0,2.591-.006l5.7,0c.318,0,.418.07.484.374a2.62,2.62,0,0,1,.071.547q0,.76-.028,1.519a1.552,1.552,0,0,1-.107.438.294.294,0,0,1-.309.2c-.053,0-.106,0-.159,0h-5.341Z" transform="translate(-445.232 -17.519)" fill="#0a1e7f"/>
    <path id="Path_8481" data-name="Path 8481" d="M670.636,266.486a7.1,7.1,0,0,1,3.372.8c.261.14.5.324.748.485a.327.327,0,0,1,.153.358,1.625,1.625,0,0,1-.1.36,5.768,5.768,0,0,1-1.058,1.615,1.441,1.441,0,0,1-.329.251.357.357,0,0,1-.411-.027,4.316,4.316,0,0,0-1.782-.694,3.123,3.123,0,0,0-1.305.027,1.374,1.374,0,0,0-.433.189.517.517,0,0,0-.049.858,2.346,2.346,0,0,0,.537.333c.465.209.939.4,1.409.6a9.718,9.718,0,0,1,1.841.972,4.744,4.744,0,0,1,1.026.958,3.461,3.461,0,0,1-.395,4.694,5.068,5.068,0,0,1-2.34,1.208,6.91,6.91,0,0,1-5.116-.72,4.927,4.927,0,0,1-1.077-.838.435.435,0,0,1-.107-.521,2.6,2.6,0,0,1,.172-.355,7.45,7.45,0,0,1,.887-1.188,2.442,2.442,0,0,1,.4-.348c.161-.111.238-.094.393.026a5.212,5.212,0,0,0,2.258,1.026,3.085,3.085,0,0,0,1.421-.063,1.5,1.5,0,0,0,.478-.232.578.578,0,0,0,.071-.912,2.13,2.13,0,0,0-.526-.382c-.347-.179-.71-.325-1.066-.486-.525-.238-1.056-.462-1.572-.719a5.464,5.464,0,0,1-1.415-1.014,3.441,3.441,0,0,1-.125-4.671,4.489,4.489,0,0,1,2.3-1.377A6.517,6.517,0,0,1,670.636,266.486Z" transform="translate(-483.385 -16.779)" fill="#0a1e7f"/>
    <path id="Path_8482" data-name="Path 8482" d="M721.5,266.476a7.3,7.3,0,0,1,3.6.856c.231.128.44.293.661.44a.315.315,0,0,1,.148.341,1.8,1.8,0,0,1-.106.4,5.928,5.928,0,0,1-1.035,1.583,1.4,1.4,0,0,1-.257.216.432.432,0,0,1-.533-.006,4.271,4.271,0,0,0-2.4-.719,2.875,2.875,0,0,0-.67.083,1.249,1.249,0,0,0-.443.209.5.5,0,0,0-.039.8,1.929,1.929,0,0,0,.476.316c.427.2.862.375,1.3.555a11.248,11.248,0,0,1,1.846.924,4.78,4.78,0,0,1,1.293,1.188,3.459,3.459,0,0,1-.619,4.73,5.242,5.242,0,0,1-2.386,1.119,6.916,6.916,0,0,1-4.9-.759,4.868,4.868,0,0,1-1.107-.864.4.4,0,0,1-.1-.468,2.653,2.653,0,0,1,.185-.392,7.333,7.333,0,0,1,.915-1.217,2.19,2.19,0,0,1,.378-.318c.163-.108.236-.092.394.03a5.209,5.209,0,0,0,2.26,1.025,3.1,3.1,0,0,0,1.42-.063,1.489,1.489,0,0,0,.462-.221.584.584,0,0,0,.08-.926,2.16,2.16,0,0,0-.546-.389c-.4-.2-.818-.377-1.233-.55a13.318,13.318,0,0,1-1.716-.828,5,5,0,0,1-1.309-1.083,3.156,3.156,0,0,1-.739-2.253,3.6,3.6,0,0,1,2-3.09,5.2,5.2,0,0,1,1.983-.61C721.048,266.5,721.347,266.488,721.5,266.476Z" transform="translate(-523.619 -16.771)" fill="#0a1e7f"/>
    <path id="Path_8483" data-name="Path 8483" d="M508.89,275.849v3.918c0,.276-.058.373-.331.431a3.8,3.8,0,0,1-.729.084c-.485.008-.97,0-1.454-.017a1.874,1.874,0,0,1-.467-.092.317.317,0,0,1-.239-.342c.007-.565,0-1.132,0-1.7q0-5.135,0-10.269c0-.431.14-.452.445-.451,1.714.006,3.429.016,5.143,0a4.007,4.007,0,0,1,4.023,3.361,4.412,4.412,0,0,1-.442,2.988,3.868,3.868,0,0,1-3.45,2.082c-.75.026-1.5.006-2.252.007Zm.011-5.353v2.279c.063,0,.122.012.18.012h1.651a1.959,1.959,0,0,0,.257-.021,1.141,1.141,0,0,0-.2-2.269c-.424-.008-.849,0-1.273,0Z" transform="translate(-357.558 -17.51)" fill="#0a1e7f"/>
    <path id="Path_8484" data-name="Path 8484" d="M52.389,255.715a11.082,11.082,0,0,1,4.934-8.6,10.113,10.113,0,0,1,4.61-1.8,9.921,9.921,0,0,1,6.829,1.527,10.139,10.139,0,0,1,4.579,6.651,11.438,11.438,0,0,1-3.153,10.565,10.62,10.62,0,0,1-5.985,3.037,10.131,10.131,0,0,1-10.974-6.234A12.434,12.434,0,0,1,52.389,255.715Zm20.36.09a8.373,8.373,0,0,0-.478-3.032,9.014,9.014,0,0,0-4.32-5.227,8.721,8.721,0,0,0-4.187-1.119,9.037,9.037,0,0,0-3.535.683,9.943,9.943,0,0,0-4.862,4.339,9.718,9.718,0,0,0-1.19,3.568,10.209,10.209,0,0,0-.035,2.687,9.628,9.628,0,0,0,1.227,3.635,8.568,8.568,0,0,0,4.937,4.077,8.737,8.737,0,0,0,4.87.231,9.638,9.638,0,0,0,6.524-5.263,10.557,10.557,0,0,0,1.051-4.58Z" transform="translate(0 0)" fill="#ff4576"/>
    <path id="Path_8485" data-name="Path 8485" d="M170.338,276.873h.369l5,.006h.12a.327.327,0,0,1,.345.244,1.85,1.85,0,0,1,.1.441,10.87,10.87,0,0,1-.024,1.892,1.228,1.228,0,0,1-.08.284.325.325,0,0,1-.336.227c-.046,0-.093,0-.14,0l-8.133,0c-.314,0-.443-.054-.443-.435q.008-5.944,0-11.889c0-.046,0-.092,0-.138a.258.258,0,0,1,.182-.277,1.825,1.825,0,0,1,.5-.113c.617-.013,1.235-.011,1.852,0a1.721,1.721,0,0,1,.465.1.3.3,0,0,1,.221.314c0,.053,0,.1,0,.158v9.184Z" transform="translate(-90.501 -17.271)" fill="#0a1e7f"/>
    <path id="Path_8486" data-name="Path 8486" d="M69.423,283.985a1.363,1.363,0,0,1-1.007-.47,3.312,3.312,0,0,1-.649-1.109,7.091,7.091,0,0,1-.36-1.768,5.76,5.76,0,0,1,.082-1.326,6.624,6.624,0,0,1,.477-1.862,3.364,3.364,0,0,1,.537-.879,1.255,1.255,0,0,1,1.457-.391,6.8,6.8,0,0,1,.818.361,11.806,11.806,0,0,1,3.742,2.92,3.225,3.225,0,0,1,.275.365.5.5,0,0,1-.011.58,1.508,1.508,0,0,1-.119.159,12.04,12.04,0,0,1-3.582,2.842,11.007,11.007,0,0,1-1.136.475A3.212,3.212,0,0,1,69.423,283.985Z" transform="translate(-11.842 -24.403)" fill="#ffda02"/>
    <path id="Path_8487" data-name="Path 8487" d="M85.682,309.516a5.013,5.013,0,0,1-.584-.1,2.909,2.909,0,0,1-1.509-1.019,1.858,1.858,0,0,1-.38-.824,1.481,1.481,0,0,1,.291-1.2,4.363,4.363,0,0,1,.486-.552q1.376-1.3,2.767-2.578a4.077,4.077,0,0,1,.608-.446,1.445,1.445,0,0,1,.815-.22.808.808,0,0,1,.8.647c.072.364.115.733.16,1.1a1,1,0,0,1-.033.275,15.434,15.434,0,0,1-.395,1.947,7.689,7.689,0,0,1-.6,1.491A2.862,2.862,0,0,1,85.682,309.516Z" transform="translate(-24.292 -45.357)" fill="#ffda02"/>
    <path id="Path_8488" data-name="Path 8488" d="M87.524,256.7a2.649,2.649,0,0,1,2.471,1.68,7.591,7.591,0,0,1,.518,1.956c.029.2.048.408.073.612a4.246,4.246,0,0,1-.095,1.146,2.2,2.2,0,0,1-.093.406.879.879,0,0,1-1.262.548,4.158,4.158,0,0,1-1.24-.819c-.83-.8-1.65-1.618-2.4-2.5a2.218,2.218,0,0,1-.388-.6,1.228,1.228,0,0,1,.063-1.093,1.007,1.007,0,0,1,.107-.169A3.046,3.046,0,0,1,87.524,256.7Z" transform="translate(-25.737 -9.06)" fill="#ffda02"/>
    <path id="Path_8489" data-name="Path 8489" d="M113.86,303.4c.034-.269.073-.659.139-1.043a1.378,1.378,0,0,1,.176-.44.718.718,0,0,1,.855-.344,1.053,1.053,0,0,1,.188.063,4.462,4.462,0,0,1,2.382,2.371,2.313,2.313,0,0,1-1.112,2.861,1.486,1.486,0,0,1-2.078-.789A7.737,7.737,0,0,1,113.86,303.4Z" transform="translate(-48.491 -44.508)" fill="#ffda02"/>
    <path id="Path_8490" data-name="Path 8490" d="M116.547,262.929a1.391,1.391,0,0,1,.791.241,2.26,2.26,0,0,1,1.077,1.951,1.957,1.957,0,0,1-.42,1.22,6.127,6.127,0,0,1-1.524,1.444,2.1,2.1,0,0,1-.757.342,1.625,1.625,0,0,1-.395.025.718.718,0,0,1-.653-.575c-.054-.333-.121-.665-.182-1a.141.141,0,0,1-.006-.059c.125-.427.093-.878.2-1.309a6.769,6.769,0,0,1,.472-1.411,1.5,1.5,0,0,1,1.4-.873Z" transform="translate(-48.979 -13.997)" fill="#ffda02"/>
    <path id="Path_8491" data-name="Path 8491" d="M125.69,288.353a1.956,1.956,0,0,1-.361,1.128,1.318,1.318,0,0,1-1.033.628,2.811,2.811,0,0,1-.63-.067,4.439,4.439,0,0,1-1.951-.849,2.27,2.27,0,0,1-.412-.4.9.9,0,0,1,.028-1.156,2.74,2.74,0,0,1,.839-.66,4.8,4.8,0,0,1,1.92-.539,1.264,1.264,0,0,1,1.057.413,2.05,2.05,0,0,1,.542,1.5Z" transform="translate(-54.207 -32.563)" fill="#ffda02"/>
  </g>
</svg>
